<svg width="76" height="75" viewBox="0 0 76 75" fill="none" xmlns="http://www.w3.org/2000/svg">
<g clip-path="url(#clip0_1_567)">
<path d="M24.9219 0.0468772C24.7285 0.0820334 24.5293 0.11719 24.3594 0.234377C23.6738 0.697268 23.5215 1.65821 23.9844 2.34375L27.2188 7.17188C22.2207 9.82031 18.4941 14.2207 17.2812 19.5H58.7188C57.5059 14.2207 53.7793 9.82031 48.7812 7.17188L52.0156 2.34375C52.4785 1.65821 52.3262 0.697268 51.6406 0.234377C50.9492 -0.228514 49.9941 -0.0292948 49.5312 0.656252L45.9688 5.90625C43.4961 5.00391 40.8125 4.5 38 4.5C35.1875 4.5 32.5039 5.00391 30.0312 5.90625L26.4688 0.656252C26.123 0.140627 25.4961 -0.064451 24.9219 0.0468772ZM29.75 12C30.9922 12 32 13.0078 32 14.25C32 15.498 30.9922 16.5 29.75 16.5C28.502 16.5 27.5 15.498 27.5 14.25C27.5 13.0078 28.502 12 29.75 12ZM46.25 12C47.498 12 48.5 13.0078 48.5 14.25C48.5 15.498 47.498 16.5 46.25 16.5C45.0078 16.5 44 15.498 44 14.25C44 13.0078 45.0078 12 46.25 12ZM12.5 22.5C10.0156 22.5 8 24.5156 8 27V48C8 50.4844 10.0156 52.5 12.5 52.5C13.0273 52.5 13.5312 52.3887 14 52.2188V22.7812C13.5312 22.6113 13.0273 22.5 12.5 22.5ZM17 22.5V55.5C17 57.9785 19.0215 60 21.5 60H54.5C56.9785 60 59 57.9785 59 55.5V22.5H17ZM63.5 22.5C62.9727 22.5 62.4688 22.6113 62 22.7812V52.2188C62.4688 52.3828 62.9727 52.5 63.5 52.5C65.9844 52.5 68 50.4844 68 48V27C68 24.5156 65.9844 22.5 63.5 22.5ZM23 63V69C23 72.3105 25.6895 75 29 75C32.3105 75 35 72.3105 35 69V63H23ZM41 63V69C41 72.3105 43.6895 75 47 75C50.3105 75 53 72.3105 53 69V63H41Z" fill="#4BAA5B"/>
</g>
<defs>
<clipPath id="clip0_1_567">
<rect width="75" height="75" fill="white" transform="translate(0.5)"/>
</clipPath>
</defs>
</svg>
