<svg width="76" height="75" viewBox="0 0 76 75" fill="none" xmlns="http://www.w3.org/2000/svg">
<path d="M67.291 52.125C65.6738 55.7168 64.8945 57.3223 62.8144 60.4922C59.9023 64.9219 55.7949 70.4531 50.7207 70.4883C46.2031 70.5293 45.0371 67.541 38.9023 67.5938C32.7734 67.623 31.4961 70.5469 26.9726 70.5C21.8925 70.4531 18.0078 65.4727 15.0957 61.0488C6.95114 48.6445 6.08981 34.1016 11.123 26.3672C14.6855 20.8828 20.3164 17.6602 25.6074 17.6602C30.998 17.6602 34.3847 20.6191 38.8379 20.6191C43.1621 20.6191 45.7929 17.6543 52.0273 17.6543C56.7383 17.6543 61.7187 20.2207 65.2812 24.6504C53.6328 31.0371 55.5254 47.6719 67.291 52.125ZM47.2929 12.7031C49.5605 9.79102 51.2832 5.68359 50.6562 1.5C46.959 1.75195 42.6347 4.11328 40.1093 7.17188C37.8183 9.96094 35.9199 14.0977 36.6582 18.0996C40.6953 18.2285 44.873 15.8203 47.2929 12.7031Z" fill="black"/>
</svg>
