<svg width="76" height="75" viewBox="0 0 76 75" fill="none" xmlns="http://www.w3.org/2000/svg">
<path d="M71.2777 22.0532C71.2772 20.7925 71.0082 19.6785 70.4643 18.7224C69.93 17.7822 69.1298 16.9942 68.0565 16.3711C59.1967 11.2502 50.3283 6.14501 41.4714 1.01889C39.0836 -0.36293 36.7684 -0.312553 34.3984 1.08911C30.8719 3.17385 13.2161 13.3136 7.95492 16.3683C5.78821 17.6256 4.73389 19.5498 4.73337 22.0509C4.72998 32.3493 4.73337 42.6475 4.72998 52.9462C4.7305 54.1792 4.98803 55.2715 5.50803 56.2133C6.04261 57.1819 6.85399 57.9916 7.95205 58.6288C13.2135 61.6834 30.8716 71.8224 34.3973 73.9076C36.7684 75.3101 39.0836 75.3602 41.4721 73.9779C50.3293 68.8515 59.1982 63.7465 68.0593 58.6256C69.1574 57.9887 69.9688 57.1785 70.5033 56.2107C71.0226 55.2689 71.2806 54.1766 71.2811 52.9433C71.2811 52.9433 71.2811 32.3519 71.2777 22.0532Z" fill="#5C8DBC"/>
<path d="M38.1074 37.3981L5.50806 56.2133C6.04264 57.1819 6.85402 57.9916 7.95208 58.6287C13.2135 61.6834 30.8717 71.8224 34.3974 73.9076C36.7685 75.3101 39.0836 75.3602 41.4722 73.9779C50.3294 68.8515 59.1983 63.7465 68.0594 58.6256C69.1574 57.9887 69.9688 57.1785 70.5034 56.2107L38.1074 37.3981Z" fill="#1A4674"/>
<path d="M28.4519 42.9714C30.3489 46.291 33.9149 48.53 38.0056 48.53C42.1216 48.53 45.708 46.2625 47.5953 42.9074L38.1075 37.3981L28.4519 42.9714Z" fill="#1A4674"/>
<path d="M71.2778 22.0533C71.2773 20.7925 71.0083 19.6785 70.4643 18.7224L38.1074 37.3982L70.5034 56.2107C71.0226 55.269 71.2807 54.1766 71.2812 52.9433C71.2812 52.9433 71.2812 32.3519 71.2778 22.0533Z" fill="#1B598E"/>
<path d="M69.4964 38.7429H66.9649V41.2811H64.4329V38.7429H61.9016V36.2056H64.4329V33.668H66.9649V36.2056H69.4964V38.7429ZM60.2591 38.7429H57.7278V41.2811H55.1963V38.7429H52.6648V36.2056H55.1963V33.668H57.7278V36.2056H60.2591V38.7429Z" fill="white"/>
<path d="M47.5952 42.9075C45.7079 46.2626 42.1216 48.53 38.0056 48.53C33.9148 48.53 30.3488 46.291 28.4518 42.9714C27.4989 41.3057 26.9984 39.4186 27.0004 37.4984C27.0004 31.406 31.9278 26.467 38.0056 26.467C42.07 26.467 45.6173 28.6781 47.5236 31.9638L57.1427 26.4114C53.3194 19.7957 46.1813 15.3448 38.0056 15.3448C25.7995 15.3448 15.9049 25.2635 15.9049 37.4984C15.9049 41.5123 16.9702 45.2765 18.832 48.5232C22.6456 55.174 29.804 59.6522 38.0056 59.6522C46.2222 59.6522 53.3918 55.156 57.2 48.4857L47.5952 42.9075Z" fill="white"/>
</svg>
