<svg width="41" height="41" viewBox="0 0 41 41" fill="none" xmlns="http://www.w3.org/2000/svg">
<path d="M25.53 36.0347V5.97467C25.53 5.42239 25.0823 4.97467 24.53 4.97467H16.1772C15.6249 4.97467 15.1772 5.42239 15.1772 5.97467V36.0347M25.53 36.0347L25.5272 17.6907C25.5271 17.1383 25.9748 16.6905 26.5272 16.6905H34.8799C35.4322 16.6905 35.8799 17.1382 35.8799 17.6905V35.0347C35.8799 35.587 35.4322 36.0347 34.8799 36.0347H25.53ZM25.53 36.0347H15.1772M15.1772 36.0347V26.7816C15.1772 26.2293 14.7295 25.7816 14.1772 25.7816H6.11988C5.5676 25.7816 5.11988 26.2293 5.11988 26.7816V35.0347C5.11988 35.587 5.5676 36.0347 6.11989 36.0347H15.1772Z" stroke="#00B533" stroke-width="2" stroke-linecap="round" stroke-linejoin="round"/>
</svg>
