<svg width="76" height="75" viewBox="0 0 76 75" fill="none" xmlns="http://www.w3.org/2000/svg">
<path fill-rule="evenodd" clip-rule="evenodd" d="M31.1713 39.7829C31.1713 39.7829 29.2071 40.9259 32.5707 41.312C36.6468 41.7775 38.7288 41.7105 43.2191 40.8611C43.2191 40.8611 44.4013 41.6013 46.0516 42.2417C35.9825 46.5562 23.2636 41.9921 31.1713 39.7829ZM29.9405 34.1526C29.9405 34.1526 27.7369 35.7837 31.1035 36.1318C35.4577 36.5815 38.8947 36.6182 44.8459 35.4731C44.8459 35.4731 45.6676 36.3071 46.9607 36.7628C34.7883 40.3231 21.2315 37.0431 29.9405 34.1526Z" fill="#3174B9"/>
<path fill-rule="evenodd" clip-rule="evenodd" d="M40.312 24.6006C42.7942 27.4578 39.6614 30.0274 39.6614 30.0274C39.6614 30.0274 45.9611 26.776 43.0677 22.7029C40.3662 18.9063 38.294 17.0201 49.5107 10.5156C49.5107 10.5156 31.9034 14.9113 40.312 24.6006Z" fill="#CA3132"/>
<path fill-rule="evenodd" clip-rule="evenodd" d="M53.6286 43.9477C53.6286 43.9477 55.0826 45.1466 52.027 46.0737C46.2167 47.8336 27.8393 48.3643 22.7346 46.1437C20.9009 45.345 24.3413 44.2379 25.4237 44.0041C26.5526 43.76 27.1968 43.8044 27.1968 43.8044C25.1562 42.3675 14.0069 46.6266 21.5344 47.8485C42.0608 51.1767 58.9522 46.3501 53.6286 43.9477ZM32.1163 28.3183C32.1163 28.3183 22.7696 30.539 28.8069 31.3462C31.3569 31.6871 36.4365 31.6086 41.1717 31.2114C45.0404 30.8867 48.9237 30.1921 48.9237 30.1921C48.9237 30.1921 47.5606 30.777 46.5729 31.4503C37.0798 33.9474 18.7438 32.7844 24.023 30.2318C28.4865 28.0726 32.1163 28.3183 32.1163 28.3183ZM48.8849 37.6903C58.5341 32.6773 54.0728 27.8588 50.9579 28.5082C50.1963 28.6673 49.8546 28.8047 49.8546 28.8047C49.8546 28.8047 50.1388 28.3601 50.6789 28.169C56.8399 26.0038 61.5773 34.5566 48.6925 37.9437C48.692 37.9437 48.8405 37.8097 48.8849 37.6903Z" fill="#3174B9"/>
<path fill-rule="evenodd" clip-rule="evenodd" d="M43.0676 0.00970459C43.0676 0.00970459 48.4104 5.35589 37.9987 13.5742C29.649 20.1692 36.0951 23.9283 37.9962 28.2249C33.1214 23.8276 29.5458 19.9558 31.9443 16.3533C35.4658 11.0651 45.2234 8.50063 43.0676 0.00970459Z" fill="#CA3132"/>
<path fill-rule="evenodd" clip-rule="evenodd" d="M33.0655 51.2787C42.3261 51.8708 56.5497 50.9497 56.8872 46.5669C56.8872 46.5669 56.2396 48.2282 49.2329 49.5461C41.3277 51.0342 31.5761 50.861 25.7943 49.9066C25.7943 49.9066 26.9791 50.887 33.0655 51.2787Z" fill="#3174B9"/>
<path fill-rule="evenodd" clip-rule="evenodd" d="M56.4593 59.1382H56.1778V58.9803H56.9376V59.1382H56.656V59.9266H56.4593V59.1382ZM57.9756 59.1774H57.9722L57.6923 59.9262H57.5639L57.2857 59.1774H57.2823V59.9262H57.0954V58.9799H57.3698L57.6275 59.6493L57.8852 58.9799H58.1569V59.9262H57.976L57.9756 59.1774ZM31.548 68.0229C30.6747 68.7798 29.7514 69.2055 28.9225 69.2055C27.7415 69.2055 27.1007 68.496 27.1007 67.3608C27.1007 66.1316 27.7868 65.2323 30.5326 65.2323H31.5476L31.548 68.0229ZM33.9585 70.7423V62.3239C33.9585 60.1724 32.7315 58.7525 29.7736 58.7525C28.0479 58.7525 26.535 59.1787 25.305 59.7218L25.6591 61.2129C26.628 60.8571 27.8806 60.5273 29.1102 60.5273C30.8142 60.5273 31.5476 61.2129 31.5476 62.6323V63.6968H30.696C26.5568 63.6968 24.689 65.3027 24.689 67.717C24.689 69.7973 25.9198 70.9799 28.2369 70.9799C29.7263 70.9799 30.8389 70.3651 31.8778 69.4654L32.0668 70.7423H33.9585ZM42.0036 70.7423H38.9979L35.3788 58.9667H38.0043L40.2505 66.2029L40.7506 68.377C41.8837 65.2323 42.6879 62.0397 43.0902 58.9667H45.6432C44.9598 62.844 43.7285 67.1009 42.0036 70.7423ZM53.5386 68.0229C52.6627 68.7798 51.7394 69.2055 50.9122 69.2055C49.7313 69.2055 49.0913 68.496 49.0913 67.3608C49.0913 66.1316 49.7778 65.2323 52.5219 65.2323H53.5386V68.0229ZM55.9499 70.7423V62.3239C55.9499 60.1724 54.7191 58.7525 51.7642 58.7525C50.0367 58.7525 48.5243 59.1787 47.2943 59.7218L47.6484 61.2129C48.6173 60.8571 49.8725 60.5273 51.1025 60.5273C52.8039 60.5273 53.5382 61.2129 53.5382 62.6323V63.6968H52.6866C48.5469 63.6968 46.6804 65.3027 46.6804 67.717C46.6804 69.7973 47.9087 70.9799 50.2262 70.9799C51.7168 70.9799 52.8278 70.3651 53.8692 69.4654L54.0591 70.7423H55.9499ZM22.0459 72.7432C21.3591 73.7471 20.2481 74.5419 19.0335 74.9903L17.8431 73.5884C18.7685 73.1135 19.5612 72.3469 19.9302 71.6335C20.2481 70.9978 20.3808 70.1804 20.3808 68.2238V54.7784H22.9427V68.0383C22.9427 70.6553 22.7337 71.7129 22.0459 72.7432Z" fill="#CA3132"/>
</svg>
