<svg width="245" height="78" viewBox="0 0 245 78" fill="none" xmlns="http://www.w3.org/2000/svg">
<path d="M100.247 65.3824H94.1006L91.9628 59.9725H81.2357L79.1361 65.3824H73.1808L83.6789 39.8574H89.7104L100.247 65.3824ZM86.5802 46.372L83.1063 55.2105H90.054L86.5802 46.372ZM120.136 53.6104H114.754C114.448 52.7722 113.914 52.0992 113.15 51.5913C112.412 51.0579 111.534 50.7912 110.516 50.7912C109.04 50.7912 107.857 51.2865 106.966 52.2771C106.075 53.2422 105.63 54.4485 105.63 55.8963C105.63 57.3186 106.075 58.5249 106.966 59.5155C107.857 60.4806 109.04 60.9631 110.516 60.9631C111.509 60.9631 112.387 60.7092 113.15 60.2011C113.914 59.6679 114.448 58.9821 114.754 58.1439H120.136C119.729 60.4552 118.647 62.3346 116.891 63.7822C115.161 65.23 113.023 65.9538 110.478 65.9538C107.475 65.9538 105.057 65.0014 103.225 63.0966C101.392 61.1917 100.476 58.7916 100.476 55.8963C100.476 53.0008 101.392 50.6007 103.225 48.6958C105.057 46.791 107.475 45.8386 110.478 45.8386C113.048 45.8386 115.199 46.5625 116.929 48.0102C118.686 49.4325 119.755 51.2992 120.136 53.6104ZM137.223 48.8482V46.4101H142.338V65.3824H137.223V62.868H137.032C136.421 63.7822 135.582 64.5189 134.513 65.0776C133.444 65.6364 132.235 65.9284 130.886 65.9538C128.29 65.9538 126.127 65.0268 124.396 63.1728C122.691 61.2933 121.839 58.8805 121.839 55.9344C121.839 52.9881 122.678 50.5626 124.358 48.6577C126.063 46.7529 128.252 45.8133 130.924 45.8386C132.248 45.8386 133.444 46.1179 134.513 46.6767C135.582 47.2356 136.421 47.9593 137.032 48.8482H137.223ZM128.443 59.6298C129.41 60.5949 130.644 61.0774 132.146 61.0774C133.647 61.0774 134.869 60.5821 135.811 59.5917C136.752 58.5757 137.223 57.3439 137.223 55.8963C137.223 54.4231 136.739 53.1913 135.772 52.2009C134.831 51.2103 133.622 50.715 132.146 50.715C130.644 50.715 129.41 51.2103 128.443 52.2009C127.501 53.166 127.03 54.3978 127.03 55.8963C127.03 57.3946 127.501 58.6392 128.443 59.6298ZM160.561 48.9244V37.9525H165.676V65.3824H160.561V62.9061H160.407C159.797 63.795 158.945 64.5189 157.851 65.0776C156.78 65.6364 155.586 65.9284 154.261 65.9538C151.589 65.9538 149.401 65.014 147.695 63.1347C146.016 61.2298 145.176 58.8043 145.176 55.8582C145.176 52.8865 146.028 50.4738 147.734 48.6196C149.464 46.7403 151.628 45.8133 154.224 45.8386C155.546 45.8386 156.743 46.1307 157.812 46.7148C158.906 47.2737 159.772 48.0102 160.407 48.9244H160.561ZM151.78 52.2009C150.839 53.166 150.368 54.3978 150.368 55.8963C150.368 57.3946 150.839 58.6392 151.78 59.6298C152.748 60.5949 153.982 61.0774 155.483 61.0774C156.959 61.0774 158.168 60.5821 159.11 59.5917C160.077 58.6011 160.561 57.3693 160.561 55.8963C160.561 54.4485 160.09 53.2294 159.148 52.239C158.207 51.223 156.985 50.715 155.483 50.715C153.982 50.715 152.748 51.2103 151.78 52.2009ZM178.289 45.8386C181.444 45.8386 183.938 46.9561 185.772 49.1911C187.604 51.4261 188.342 54.2326 187.986 57.6106H173.631C173.785 58.6264 174.267 59.49 175.082 60.2011C175.922 60.8869 176.979 61.2552 178.25 61.306C179.142 61.3567 179.968 61.2043 180.732 60.8488C181.521 60.4678 182.08 59.9725 182.412 59.3631H187.795C187.183 61.4457 186.012 63.0711 184.282 64.2394C182.552 65.3824 180.541 65.9538 178.25 65.9538C175.171 65.9538 172.754 64.9887 170.998 63.0585C169.241 61.1028 168.363 58.7154 168.363 55.8963C168.363 53.0517 169.292 50.6643 171.15 48.7339C173.033 46.8037 175.412 45.8386 178.289 45.8386ZM181.114 51.2865C180.325 50.7277 179.37 50.4483 178.25 50.4483C177.131 50.4483 176.151 50.7405 175.312 51.3246C174.497 51.8833 173.95 52.6453 173.669 53.6104H182.755C182.475 52.6198 181.928 51.8452 181.114 51.2865ZM212.899 45.8767C214.961 45.8767 216.679 46.5625 218.053 47.934C219.427 49.3054 220.115 51.2992 220.115 53.9152V65.3824H214.961V54.7152C214.961 53.4199 214.656 52.4548 214.044 51.8199C213.434 51.1849 212.633 50.8674 211.639 50.8674C210.647 50.8674 209.782 51.2356 209.044 51.9723C208.331 52.7088 207.975 53.8135 207.975 55.2867V65.3824H202.821V54.7533C202.821 53.458 202.516 52.4929 201.906 51.858C201.294 51.223 200.506 50.9055 199.538 50.9055C198.444 50.931 197.553 51.3627 196.866 52.2009C196.204 53.0389 195.874 54.1438 195.874 55.5153V65.3824H190.72V46.4101H195.645V48.8101H195.797C197.096 46.8546 198.902 45.8767 201.219 45.8767C203.712 45.8767 205.507 46.9053 206.601 48.9625H206.753C208.255 46.9053 210.303 45.8767 212.899 45.8767ZM232.55 60.8107L237.208 46.4101H242.437L234.878 68.4682C234.37 69.9159 233.593 71.0334 232.55 71.8207C231.507 72.6081 230.247 73.0018 228.771 73.0018H223.35V67.9729H228.618C229.128 67.9729 229.561 67.8586 229.917 67.63L221.173 46.4101H226.823L232.55 60.8107Z" fill="#00B533"/>
<path fill-rule="evenodd" clip-rule="evenodd" d="M33.403 71.432C51.851 71.432 66.8061 56.5074 66.8061 38.097C66.8061 19.6868 51.851 4.76221 33.403 4.76221C14.955 4.76221 0 19.6868 0 38.097C0 56.5074 14.955 71.432 33.403 71.432ZM33.5414 56.5551C43.6802 56.5551 51.8993 48.3528 51.8993 38.2347C51.8993 28.1168 43.6802 19.9143 33.5414 19.9143C23.4026 19.9143 15.1835 28.1168 15.1835 38.2347C15.1835 48.3528 23.4026 56.5551 33.5414 56.5551Z" fill="#00B533"/>
<path d="M42.4692 40.9542C48.5307 40.9542 53.4445 36.0505 53.4445 30.0013C53.4445 23.9522 48.5307 19.0485 42.4692 19.0485C36.4077 19.0485 31.4939 23.9522 31.4939 30.0013C31.4939 36.0505 36.4077 40.9542 42.4692 40.9542Z" fill="#FFCC1B"/>
<path d="M86.8713 7.25128C89.2407 7.25128 91.2111 7.99926 92.7827 9.49519C94.3542 10.9911 95.14 12.8611 95.14 15.105C95.14 17.373 94.3542 19.2429 92.7827 20.7147C91.2111 22.1625 89.2407 22.8862 86.8713 22.8862H78.9291V31.5H75.4111V7.25128H86.8713ZM78.9291 19.5204H86.7625C88.189 19.5204 89.3495 19.1103 90.244 18.2899C91.1386 17.4694 91.5858 16.4079 91.5858 15.105C91.5858 13.8262 91.1265 12.7766 90.2078 11.9563C89.3132 11.1118 88.1648 10.6895 86.7625 10.6895H78.9291V19.5204ZM99.7421 31.4638V7.25128H109.498C112.979 7.25128 115.856 8.39737 118.129 10.6895C120.402 12.9576 121.538 15.8287 121.538 19.3032V19.4118C121.538 22.8862 120.402 25.7695 118.129 28.0617C115.856 30.3298 112.979 31.4638 109.498 31.4638H99.7421ZM109.461 10.6895H103.26V28.0255H109.461C111.952 28.0255 113.995 27.2293 115.59 25.6369C117.186 24.0202 117.984 21.9453 117.984 19.4118V19.3032C117.984 16.7698 117.186 14.7069 115.59 13.1144C113.995 11.4978 111.952 10.6895 109.461 10.6895ZM137.941 7.25128C140.311 7.25128 142.281 7.99926 143.853 9.49519C145.424 10.9911 146.21 12.8611 146.21 15.105C146.21 17.373 145.424 19.2429 143.853 20.7147C142.281 22.1625 140.311 22.8862 137.941 22.8862H129.999V31.5H126.481V7.25128H137.941ZM129.999 19.5204H137.832C139.259 19.5204 140.42 19.1103 141.314 18.2899C142.209 17.4694 142.656 16.4079 142.656 15.105C142.656 13.8262 142.197 12.7766 141.278 11.9563C140.383 11.1118 139.235 10.6895 137.832 10.6895H129.999V19.5204Z" fill="black"/>
</svg>
