<svg width="37" height="37" viewBox="0 0 37 37" fill="none" xmlns="http://www.w3.org/2000/svg">
<path fill-rule="evenodd" clip-rule="evenodd" d="M32.5151 18.5C32.5151 26.2402 26.2404 32.5149 18.5002 32.5149C10.76 32.5149 4.48535 26.2402 4.48535 18.5C4.48535 10.7598 10.76 4.48511 18.5002 4.48511C26.2404 4.48511 32.5151 10.7598 32.5151 18.5ZM23.5205 13.7232C23.5205 11.0494 21.2634 8.86476 18.5007 8.86476C15.738 8.86476 13.4808 11.0494 13.4808 13.7232C13.4808 16.397 15.738 18.5816 18.5007 18.5816C21.2633 18.5816 23.5205 16.397 23.5205 13.7232Z" stroke="#00B533" stroke-width="1.80488"/>
<path d="M24.9027 30.1409V26.9163C24.9027 24.9227 23.2866 23.3066 21.293 23.3066H15.6981C13.7045 23.3066 12.0884 24.9227 12.0884 26.9163V30.1409" stroke="#00B533" stroke-width="1.80488" stroke-linecap="round"/>
</svg>
