<svg width="41" height="41" viewBox="0 0 41 41" fill="none" xmlns="http://www.w3.org/2000/svg">
<path fill-rule="evenodd" clip-rule="evenodd" d="M36.03 20.5C36.03 29.077 29.077 36.03 20.5 36.03C11.923 36.03 4.96997 29.077 4.96997 20.5C4.96997 11.923 11.923 4.97003 20.5 4.97003C29.077 4.97003 36.03 11.923 36.03 20.5ZM26.063 15.2068C26.063 12.244 23.5618 9.82316 20.5004 9.82316C17.4391 9.82316 14.9379 12.244 14.9379 15.2068C14.9379 18.1697 17.4391 20.5905 20.5004 20.5905C23.5617 20.5905 26.063 18.1697 26.063 15.2068Z" stroke="black" stroke-width="2"/>
<path d="M27.595 33.3994V29.8262C27.595 27.6171 25.8041 25.8262 23.595 25.8262H17.3953C15.1861 25.8262 13.3953 27.6171 13.3953 29.8262V33.3994" stroke="black" stroke-width="2" stroke-linecap="round"/>
</svg>
