<svg width="76" height="75" viewBox="0 0 76 75" fill="none" xmlns="http://www.w3.org/2000/svg">
<g clip-path="url(#clip0_1_509)">
<path d="M37.5611 0.000609484C34.5046 0.0147302 31.5858 0.273912 29.0175 0.725772C21.4517 2.05477 20.078 4.83648 20.078 9.96641V16.7415H37.957V18.9999H20.078H13.3682C8.17208 18.9999 3.62221 22.1052 2.19907 28.0126C0.557488 34.7839 0.484675 39.0092 2.19907 46.0795C3.46997 51.3423 6.50505 55.0922 11.7012 55.0922H17.8484V46.9704C17.8484 41.1029 22.9543 35.9272 29.0175 35.9272H46.8756C51.8467 35.9272 55.8151 31.8576 55.8151 26.8938V9.96641C55.8151 5.14879 51.7276 1.52981 46.8756 0.725772C43.8043 0.217429 40.6175 -0.0135114 37.5611 0.000609484ZM27.8923 5.44969C29.739 5.44969 31.2472 6.9737 31.2472 8.84759C31.2472 10.7148 29.739 12.2248 27.8923 12.2248C26.0389 12.2248 24.5373 10.7148 24.5373 8.84759C24.5373 6.9737 26.0389 5.44969 27.8923 5.44969Z" fill="url(#paint0_linear_1_509)"/>
<path d="M58.0382 18.9999V26.8938C58.0382 33.0138 52.8197 38.1649 46.869 38.1649H29.0109C24.1193 38.1649 20.0714 42.3276 20.0714 47.1983V64.1257C20.0714 68.9433 24.2847 71.777 29.0109 73.1592C34.6704 74.8138 40.0975 75.1128 46.869 73.1592C51.3701 71.8634 55.8085 69.2556 55.8085 64.1257V57.3506H37.9504V55.0922H55.8085H64.748C69.9441 55.0922 71.8804 51.4885 73.6875 46.0795C75.5541 40.511 75.4747 35.156 73.6875 28.0126C72.4033 22.8694 69.9507 18.9999 64.748 18.9999H58.0382ZM47.9943 61.8673C49.8477 61.8673 51.3492 63.3773 51.3492 65.2445C51.3492 67.1184 49.8477 68.6424 47.9943 68.6424C46.1475 68.6424 44.6394 67.1184 44.6394 65.2445C44.6394 63.3773 46.1475 61.8673 47.9943 61.8673Z" fill="url(#paint1_linear_1_509)"/>
</g>
<defs>
<linearGradient id="paint0_linear_1_509" x1="0.940429" y1="-1.92378e-07" x2="41.9685" y2="35.1624" gradientUnits="userSpaceOnUse">
<stop stop-color="#5A9FD4"/>
<stop offset="1" stop-color="#306998"/>
</linearGradient>
<linearGradient id="paint1_linear_1_509" x1="47.5646" y1="64.6749" x2="32.886" y2="43.9877" gradientUnits="userSpaceOnUse">
<stop stop-color="#FFD43B"/>
<stop offset="1" stop-color="#FFE873"/>
</linearGradient>
<clipPath id="clip0_1_509">
<rect width="75" height="75" fill="white" transform="translate(0.5)"/>
</clipPath>
</defs>
</svg>
